<svg data-v-d3f97b9e="" xmlns="http://www.w3.org/2000/svg" viewBox="0 0 273.13188215310316 60"><!----><!----><!----><g data-v-d3f97b9e="" id="c6be8aa8-48e2-4f3e-81f2-736f5073885b" fill="black" transform="matrix(5.494505456117445,0,0,5.494505456117445,-1.9230776178861788,-15.329670012968926)"><path d="M5.35 7.04L5.35 7.04L5.35 7.04Q5.43 6.26 6.45 6.26L6.45 6.26L6.45 6.26Q7 6.26 7.27 6.34L7.27 6.34L7.27 6.34Q7.53 6.43 7.64 6.64L7.64 6.64L7.64 6.64Q7.74 6.85 7.76 7.01L7.76 7.01L7.76 7.01Q7.78 7.17 7.78 7.49L7.78 7.49L7.78 12.39L7.78 12.39Q7.78 12.71 7.76 12.87L7.76 12.87L7.76 12.87Q7.74 13.03 7.64 13.24L7.64 13.24L7.64 13.24Q7.45 13.61 6.69 13.61L6.69 13.61L6.69 13.61Q5.92 13.61 5.66 13.42L5.66 13.42L5.66 13.42Q5.40 13.23 5.36 12.87L5.36 12.87L5.36 12.87Q4.84 13.61 3.63 13.61L3.63 13.61L3.63 13.61Q2.42 13.61 1.39 12.50L1.39 12.50L1.39 12.50Q0.35 11.40 0.35 9.93L0.35 9.93L0.35 9.93Q0.35 8.47 1.39 7.37L1.39 7.37L1.39 7.37Q2.44 6.27 3.68 6.27L3.68 6.27L3.68 6.27Q4.16 6.27 4.55 6.44L4.55 6.44L4.55 6.44Q4.94 6.61 5.10 6.76L5.10 6.76L5.10 6.76Q5.25 6.90 5.35 7.04ZM2.80 9.95L2.80 9.95L2.80 9.95Q2.80 10.42 3.16 10.79L3.16 10.79L3.16 10.79Q3.53 11.16 4.05 11.16L4.05 11.16L4.05 11.16Q4.56 11.16 4.91 10.78L4.91 10.78L4.91 10.78Q5.25 10.40 5.25 9.95L5.25 9.95L5.25 9.95Q5.25 9.49 4.92 9.10L4.92 9.10L4.92 9.10Q4.59 8.71 4.04 8.71L4.04 8.71L4.04 8.71Q3.49 8.71 3.14 9.10L3.14 9.10L3.14 9.10Q2.80 9.49 2.80 9.95ZM12.31 6.36L13.22 6.27L13.22 6.27Q14.18 6.27 14.35 6.80L14.35 6.80L14.35 6.80Q14.43 7.07 14.43 7.50L14.43 7.50L14.43 7.50Q14.43 7.94 14.34 8.20L14.34 8.20L14.34 8.20Q14.25 8.46 14.06 8.57L14.06 8.57L14.06 8.57Q13.76 8.74 13.20 8.74L13.20 8.74L12.31 8.68L12.31 12.43L12.31 12.43Q12.31 12.96 12.17 13.22L12.17 13.22L12.17 13.22Q12.04 13.48 11.77 13.57L11.77 13.57L11.77 13.57Q11.49 13.65 11.06 13.65L11.06 13.65L11.06 13.65Q10.63 13.65 10.37 13.56L10.37 13.56L10.37 13.56Q10.11 13.47 10.00 13.27L10.00 13.27L10.00 13.27Q9.88 13.06 9.86 12.89L9.86 12.89L9.86 12.89Q9.84 12.73 9.84 12.40L9.84 12.40L9.84 8.69L9.34 8.69L9.34 8.69Q8.97 8.67 8.82 8.53L8.82 8.53L8.82 8.53Q8.55 8.26 8.55 7.50L8.55 7.50L8.55 7.50Q8.55 6.36 9.38 6.36L9.38 6.36L9.84 6.36L9.84 5.61L9.84 5.61Q9.84 4.54 10.61 3.66L10.61 3.66L10.61 3.66Q11.38 2.79 12.84 2.79L12.84 2.79L12.84 2.79Q13.16 2.79 13.32 2.81L13.32 2.81L13.32 2.81Q13.48 2.83 13.69 2.94L13.69 2.94L13.69 2.94Q14.07 3.12 14.07 4.02L14.07 4.02L14.07 4.02Q14.07 4.69 13.83 4.98L13.83 4.98L13.83 4.98Q13.64 5.21 13.22 5.24L13.22 5.24L13.22 5.24Q13.09 5.24 12.82 5.24L12.82 5.24L12.82 5.24Q12.31 5.24 12.31 5.59L12.31 5.59L12.31 6.36ZM17.23 9.95L17.23 9.95L17.23 9.95Q17.23 10.54 17.63 10.87L17.63 10.87L17.63 10.87Q18.02 11.20 18.46 11.20L18.46 11.20L18.46 11.20Q18.90 11.20 19.29 10.94L19.29 10.94L19.29 10.94Q19.67 10.68 19.91 10.68L19.91 10.68L19.91 10.68Q20.33 10.68 20.93 11.42L20.93 11.42L20.93 11.42Q21.25 11.83 21.25 12.15L21.25 12.15L21.25 12.15Q21.25 12.68 20.48 13.15L20.48 13.15L20.48 13.15Q19.68 13.71 18.52 13.71L18.52 13.71L18.52 13.71Q17.22 13.71 16.02 12.77L16.02 12.77L16.02 12.77Q15.44 12.32 15.08 11.57L15.08 11.57L15.08 11.57Q14.71 10.82 14.71 9.92L14.71 9.92L14.71 9.92Q14.71 9.02 15.08 8.28L15.08 8.28L15.08 8.28Q15.44 7.55 16.02 7.10L16.02 7.10L16.02 7.10Q17.18 6.17 18.49 6.17L18.49 6.17L18.49 6.17Q19.03 6.17 19.53 6.32L19.53 6.32L19.53 6.32Q20.03 6.47 20.27 6.61L20.27 6.61L20.50 6.75L20.50 6.75Q20.75 6.92 20.89 7.01L20.89 7.01L20.89 7.01Q21.25 7.29 21.25 7.65L21.25 7.65L21.25 7.65Q21.25 8.01 20.96 8.46L20.96 8.46L20.96 8.46Q20.45 9.23 19.99 9.23L19.99 9.23L19.99 9.23Q19.73 9.23 19.24 8.92L19.24 8.92L19.24 8.92Q18.98 8.68 18.52 8.68L18.52 8.68L18.52 8.68Q18.05 8.68 17.64 9.02L17.64 9.02L17.64 9.02Q17.23 9.35 17.23 9.95ZM22.16 12.40L22.16 7.49L22.16 7.49Q22.16 7.17 22.18 7.01L22.18 7.01L22.18 7.01Q22.20 6.85 22.30 6.64L22.30 6.64L22.30 6.64Q22.50 6.27 23.39 6.27L23.39 6.27L23.39 6.27Q24.07 6.27 24.35 6.51L24.35 6.51L24.35 6.51Q24.58 6.71 24.60 7.11L24.60 7.11L24.60 7.11Q24.61 7.25 24.61 7.52L24.61 7.52L24.61 12.42L24.61 12.42Q24.61 12.74 24.59 12.90L24.59 12.90L24.59 12.90Q24.57 13.06 24.46 13.27L24.46 13.27L24.46 13.27Q24.28 13.64 23.38 13.64L23.38 13.64L23.38 13.64Q22.50 13.64 22.30 13.26L22.30 13.26L22.30 13.26Q22.20 13.05 22.18 12.89L22.18 12.89L22.18 12.89Q22.16 12.74 22.16 12.40L22.16 12.40ZM24.46 4.89L24.46 4.89L24.46 4.89Q24.36 5.10 24.09 5.18L24.09 5.18L24.09 5.18Q23.83 5.26 23.39 5.26L23.39 5.26L23.39 5.26Q22.95 5.26 22.68 5.18L22.68 5.18L22.68 5.18Q22.41 5.10 22.31 4.89L22.31 4.89L22.31 4.89Q22.20 4.68 22.18 4.52L22.18 4.52L22.18 4.52Q22.16 4.35 22.16 4.03L22.16 4.03L22.16 4.03Q22.16 3.71 22.18 3.55L22.18 3.55L22.18 3.55Q22.20 3.39 22.30 3.19L22.30 3.19L22.30 3.19Q22.50 2.81 23.39 2.81L23.39 2.81L23.39 2.81Q24.28 2.81 24.46 3.19L24.46 3.19L24.46 3.19Q24.57 3.40 24.59 3.56L24.59 3.56L24.59 3.56Q24.61 3.72 24.61 4.05L24.61 4.05L24.61 4.05Q24.61 4.37 24.59 4.53L24.59 4.53L24.59 4.53Q24.57 4.69 24.46 4.89ZM29.82 6.29L29.82 6.29L29.82 6.29Q31.22 6.29 32.15 7.35L32.15 7.35L32.15 7.35Q33.08 8.41 33.08 9.95L33.08 9.95L33.08 12.42L33.08 12.42Q33.08 12.74 33.06 12.90L33.06 12.90L33.06 12.90Q33.04 13.06 32.93 13.27L32.93 13.27L32.93 13.27Q32.75 13.64 31.85 13.64L31.85 13.64L31.85 13.64Q31.00 13.64 30.79 13.27L30.79 13.27L30.79 13.27Q30.67 13.06 30.65 12.89L30.65 12.89L30.65 12.89Q30.63 12.73 30.63 12.39L30.63 12.39L30.63 9.94L30.63 9.94Q30.63 9.37 30.31 9.04L30.31 9.04L30.31 9.04Q29.99 8.72 29.49 8.72L29.49 8.72L29.49 8.72Q28.99 8.72 28.62 9.02L28.62 9.02L28.62 9.02Q28.24 9.32 28.18 9.70L28.18 9.70L28.18 12.42L28.18 12.42Q28.18 12.74 28.16 12.90L28.16 12.90L28.16 12.90Q28.14 13.06 28.03 13.27L28.03 13.27L28.03 13.27Q27.85 13.64 26.95 13.64L26.95 13.64L26.95 13.64Q26.07 13.64 25.87 13.26L25.87 13.26L25.87 13.26Q25.77 13.05 25.75 12.89L25.75 12.89L25.75 12.89Q25.73 12.74 25.73 12.40L25.73 12.40L25.73 4.03L25.73 4.03Q25.73 3.71 25.75 3.55L25.75 3.55L25.75 3.55Q25.77 3.39 25.87 3.19L25.87 3.19L25.87 3.19Q26.07 2.81 26.96 2.81L26.96 2.81L26.96 2.81Q27.85 2.81 28.03 3.19L28.03 3.19L28.03 3.19Q28.14 3.40 28.16 3.56L28.16 3.56L28.16 3.56Q28.18 3.72 28.18 4.05L28.18 4.05L28.18 7.14L28.18 7.14Q28.88 6.29 29.82 6.29ZM37.48 13.61L37.48 13.61L37.48 13.61Q36.06 13.61 35.13 12.54L35.13 12.54L35.13 12.54Q34.20 11.47 34.20 9.93L34.20 9.93L34.20 7.48L34.20 7.48Q34.20 7.14 34.22 6.99L34.22 6.99L34.22 6.99Q34.24 6.83 34.34 6.62L34.34 6.62L34.34 6.62Q34.54 6.24 35.43 6.24L35.43 6.24L35.43 6.24Q36.41 6.24 36.58 6.78L36.58 6.78L36.58 6.78Q36.67 7.00 36.67 7.49L36.67 7.49L36.67 9.94L36.67 9.94Q36.67 10.51 37.00 10.84L37.00 10.84L37.00 10.84Q37.32 11.16 37.88 11.16L37.88 11.16L37.88 11.16Q38.43 11.16 38.77 10.82L38.77 10.82L38.77 10.82Q39.12 10.49 39.12 9.94L39.12 9.94L39.12 7.46L39.12 7.46Q39.12 7.14 39.14 6.98L39.14 6.98L39.14 6.98Q39.16 6.82 39.27 6.61L39.27 6.61L39.27 6.61Q39.45 6.24 40.35 6.24L40.35 6.24L40.35 6.24Q41.23 6.24 41.43 6.62L41.43 6.62L41.43 6.62Q41.52 6.83 41.55 6.99L41.55 6.99L41.55 6.99Q41.57 7.15 41.57 7.48L41.57 7.48L41.57 12.43L41.57 12.43Q41.57 12.74 41.55 12.90L41.55 12.90L41.55 12.90Q41.52 13.06 41.41 13.26L41.41 13.26L41.41 13.26Q41.20 13.62 40.33 13.62L40.33 13.62L40.33 13.62Q39.48 13.62 39.28 13.29L39.28 13.29L39.28 13.29Q39.14 13.05 39.14 12.71L39.14 12.71L39.14 12.71Q39.09 12.81 38.89 12.99L38.89 12.99L38.89 12.99Q38.70 13.17 38.51 13.30L38.51 13.30L38.51 13.30Q38.04 13.61 37.48 13.61ZM46.73 6.27L46.73 6.27L46.73 6.27Q47.98 6.27 49.02 7.38L49.02 7.38L49.02 7.38Q50.06 8.48 50.06 9.95L50.06 9.95L50.06 9.95Q50.06 11.41 49.03 12.51L49.03 12.51L49.03 12.51Q47.99 13.61 46.80 13.61L46.80 13.61L46.80 13.61Q45.61 13.61 45.11 12.94L45.11 12.94L45.11 12.94Q45.00 13.62 43.90 13.62L43.90 13.62L43.90 13.62Q43.02 13.62 42.83 13.24L42.83 13.24L42.83 13.24Q42.73 13.03 42.71 12.87L42.71 12.87L42.71 12.87Q42.69 12.71 42.69 12.39L42.69 12.39L42.69 4.03L42.69 4.03Q42.69 3.71 42.71 3.55L42.71 3.55L42.71 3.55Q42.73 3.39 42.83 3.19L42.83 3.19L42.83 3.19Q43.02 2.81 43.92 2.81L43.92 2.81L43.92 2.81Q44.80 2.81 44.98 3.19L44.98 3.19L44.98 3.19Q45.09 3.40 45.12 3.56L45.12 3.56L45.12 3.56Q45.14 3.72 45.14 4.05L45.14 4.05L45.14 6.96L45.14 6.96Q45.70 6.27 46.73 6.27ZM45.51 10.79L45.51 10.79L45.51 10.79Q45.85 11.17 46.37 11.17L46.37 11.17L46.37 11.17Q46.89 11.17 47.25 10.79L47.25 10.79L47.25 10.79Q47.61 10.42 47.61 9.95L47.61 9.95L47.61 9.95Q47.61 9.49 47.28 9.11L47.28 9.11L47.28 9.11Q46.94 8.72 46.38 8.72L46.38 8.72L46.38 8.72Q45.82 8.72 45.49 9.11L45.49 9.11L45.49 9.11Q45.16 9.51 45.16 9.96L45.16 9.96L45.16 9.96Q45.16 10.42 45.51 10.79Z"></path></g><!----><!----></svg>