<svg data-v-d3f97b9e="" xmlns="http://www.w3.org/2000/svg" viewBox="0 0 357 90"><!----><!----><!----><g data-v-d3f97b9e="" id="e2ab14a2-3719-4264-b484-2c5534506c72" fill="white" transform="matrix(6.097354641547374,0,0,6.097354641547374,111.43626881980654,-19.389587928744405)"><path d="M7.31 12.85L7.31 12.85L7.31 12.85Q7.27 12.85 7.20 12.85L7.20 12.85L7.20 12.85Q7.14 12.85 7.11 12.82L7.11 12.82L7.11 12.82Q7.08 12.82 7.06 12.80L7.06 12.80L7.06 12.80Q7.03 12.78 7 12.77L7 12.77L7 12.77Q6.82 12.63 6.65 12.31L6.65 12.31L6.65 12.31Q6.48 11.98 6.33 11.62L6.33 11.62L6.33 11.62Q6.19 11.26 6.07 10.90L6.07 10.90L6.07 10.90Q5.95 10.54 5.87 10.32L5.87 10.32L5.87 10.32Q5.82 10.22 5.77 10.11L5.77 10.11L5.24 10.12L5.24 10.12Q5.03 10.14 4.76 10.10L4.76 10.10L4.76 10.10Q4.49 10.07 4.28 10.09L4.28 10.09L4.28 10.09Q3.75 10.16 3.30 10.14L3.30 10.14L3.30 10.14Q2.86 10.11 2.42 10.08L2.42 10.08L2.42 10.08Q2.34 10.33 2.21 10.72L2.21 10.72L2.21 10.72Q2.07 11.12 1.92 11.52L1.92 11.52L1.92 11.52Q1.76 11.93 1.60 12.30L1.60 12.30L1.60 12.30Q1.44 12.67 1.30 12.88L1.30 12.88L1.30 12.88Q1.22 12.88 1.08 12.88L1.08 12.88L1.08 12.88Q0.95 12.88 0.81 12.88L0.81 12.88L0.81 12.88Q0.67 12.88 0.54 12.87L0.54 12.87L0.54 12.87Q0.41 12.87 0.32 12.84L0.32 12.84L0.32 12.84Q0.27 12.75 0.22 12.73L0.22 12.73L0.22 12.73Q0.18 12.71 0.15 12.70L0.15 12.70L0.15 12.70Q0.13 12.68 0.11 12.66L0.11 12.66L0.11 12.66Q0.10 12.64 0.10 12.57L0.10 12.57L0.10 12.57Q0.10 12.53 0.11 12.46L0.11 12.46L0.11 12.46Q0.13 12.39 0.15 12.31L0.15 12.31L0.15 12.31Q0.17 12.22 0.18 12.15L0.18 12.15L0.18 12.15Q0.20 12.08 0.18 12.05L0.18 12.05L0.18 12.05Q0.22 11.84 0.29 11.61L0.29 11.61L0.29 11.61Q0.36 11.37 0.43 11.16L0.43 11.16L0.43 11.16Q0.50 10.88 0.61 10.60L0.61 10.60L0.61 10.60Q0.71 10.32 0.83 10.04L0.83 10.04L0.83 10.04Q1.02 9.55 1.21 9.06L1.21 9.06L1.21 9.06Q1.40 8.57 1.60 8.08L1.60 8.08L1.60 8.08Q1.96 7.17 2.32 6.27L2.32 6.27L2.32 6.27Q2.69 5.36 3.09 4.48L3.09 4.48L3.09 4.48Q3.23 4.17 3.42 3.93L3.42 3.93L3.42 3.93Q3.53 3.78 3.67 3.66L3.67 3.66L3.67 3.66Q3.81 3.54 3.92 3.40L3.92 3.40L3.92 3.40Q4.02 3.37 4.09 3.32L4.09 3.32L4.09 3.32Q4.17 3.28 4.24 3.21L4.24 3.21L4.40 3.18L4.38 3.18L4.38 3.18Q4.66 3.18 4.85 3.26L4.85 3.26L4.85 3.26Q5.04 3.33 5.17 3.44L5.17 3.44L5.17 3.44Q5.29 3.54 5.37 3.65L5.37 3.65L5.37 3.65Q5.45 3.77 5.50 3.84L5.50 3.84L5.50 3.84Q5.67 4.41 5.81 4.98L5.81 4.98L5.81 4.98Q5.95 5.54 6.12 6.13L6.12 6.13L6.12 6.13Q6.43 7.22 6.77 8.28L6.77 8.28L6.77 8.28Q7.11 9.34 7.50 10.40L7.50 10.40L7.50 10.40Q7.69 10.89 7.86 11.37L7.86 11.37L7.86 11.37Q8.04 11.84 8.23 12.31L8.23 12.31L7.95 12.54L7.95 12.54Q7.92 12.56 7.83 12.60L7.83 12.60L7.83 12.60Q7.74 12.64 7.63 12.69L7.63 12.69L7.63 12.69Q7.52 12.74 7.42 12.79L7.42 12.79L7.42 12.79Q7.32 12.84 7.31 12.85ZM5.36 8.82L5.38 8.71L5.38 8.71Q5.29 8.36 5.24 8.16L5.24 8.16L5.24 8.16Q5.19 7.95 5.15 7.78L5.15 7.78L5.15 7.78Q5.11 7.62 5.05 7.41L5.05 7.41L5.05 7.41Q5.00 7.21 4.90 6.86L4.90 6.86L4.62 5.91L4.62 5.91Q4.56 5.73 4.50 5.47L4.50 5.47L4.50 5.47Q4.44 5.21 4.37 5.01L4.37 5.01L4.37 5.01Q4.14 5.49 3.96 5.94L3.96 5.94L3.96 5.94Q3.78 6.38 3.61 6.83L3.61 6.83L3.61 6.83Q3.44 7.27 3.29 7.72L3.29 7.72L3.29 7.72Q3.14 8.18 2.97 8.68L2.97 8.68L2.97 8.68Q3.08 8.71 3.12 8.72L3.12 8.72L3.12 8.72Q3.26 8.75 3.56 8.78L3.56 8.78L3.56 8.78Q3.86 8.81 4.21 8.83L4.21 8.83L4.21 8.83Q4.55 8.85 4.87 8.85L4.87 8.85L4.87 8.85Q5.19 8.85 5.36 8.82L5.36 8.82ZM12.89 8.05L12.89 8.05L12.89 8.05Q12.81 8.08 12.61 8.09L12.61 8.09L12.61 8.09Q12.42 8.11 12.14 8.12L12.14 8.12L12.14 8.12Q11.87 8.13 11.54 8.14L11.54 8.14L11.54 8.14Q11.21 8.15 10.88 8.16L10.88 8.16L10.88 8.16Q10.85 8.88 10.86 9.58L10.86 9.58L10.86 9.58Q10.88 10.28 10.88 10.98L10.88 10.98L10.88 10.98Q10.88 11.34 10.87 11.62L10.87 11.62L10.87 11.62Q10.86 11.90 10.88 12.22L10.88 12.22L10.88 12.22Q10.88 12.36 10.86 12.57L10.86 12.57L10.86 12.57Q10.84 12.78 10.84 12.87L10.84 12.87L10.84 12.87Q10.79 12.87 10.71 12.87L10.71 12.87L10.71 12.87Q10.63 12.88 10.53 12.89L10.53 12.89L10.53 12.89Q10.43 12.89 10.35 12.90L10.35 12.90L10.35 12.90Q10.28 12.91 10.23 12.89L10.23 12.89L10.23 12.89Q10.09 12.88 9.95 12.84L9.95 12.84L9.95 12.84Q9.81 12.80 9.70 12.78L9.70 12.78L9.70 12.78Q9.60 12.42 9.63 11.98L9.63 11.98L9.63 11.98Q9.65 11.55 9.66 11.17L9.66 11.17L9.66 11.17Q9.67 10.43 9.70 9.71L9.70 9.71L9.70 9.71Q9.72 8.99 9.72 8.25L9.72 8.25L9.72 8.19L9.72 8.19Q9.39 8.19 9.15 8.20L9.15 8.20L9.15 8.20Q8.90 8.20 8.79 8.20L8.79 8.20L8.79 8.20Q8.64 8.05 8.62 7.81L8.62 7.81L8.62 7.81Q8.60 7.56 8.61 7.20L8.61 7.20L8.61 7.20Q8.68 7.08 9.02 7.04L9.02 7.04L9.02 7.04Q9.37 7 9.73 6.99L9.73 6.99L9.73 6.99Q9.74 6.55 9.81 6.13L9.81 6.13L9.81 6.13Q9.87 5.70 10.00 5.30L10.00 5.30L10.00 5.30Q10.12 4.90 10.34 4.54L10.34 4.54L10.34 4.54Q10.56 4.19 10.89 3.91L10.89 3.91L10.89 3.91Q11.19 3.67 11.45 3.60L11.45 3.60L11.45 3.60Q11.70 3.53 12.07 3.50L12.07 3.50L12.07 3.50Q12.35 3.49 12.59 3.49L12.59 3.49L12.59 3.49Q12.82 3.49 13.03 3.56L13.03 3.56L13.03 3.56Q13.23 3.64 13.41 3.81L13.41 3.81L13.41 3.81Q13.58 3.98 13.72 4.30L13.72 4.30L13.72 4.30Q13.82 4.52 13.85 4.65L13.85 4.65L13.85 4.65Q13.87 4.77 13.75 4.97L13.75 4.97L13.75 4.97Q13.69 4.98 13.57 5.00L13.57 5.00L13.57 5.00Q13.45 5.03 13.33 5.05L13.33 5.05L13.33 5.05Q13.20 5.07 13.10 5.08L13.10 5.08L13.10 5.08Q12.99 5.10 12.98 5.08L12.98 5.08L12.98 5.08Q12.89 5.07 12.85 4.96L12.85 4.96L12.85 4.96Q12.81 4.84 12.77 4.77L12.77 4.77L12.77 4.77Q12.77 4.62 12.63 4.58L12.63 4.58L12.63 4.58Q12.49 4.54 12.31 4.56L12.31 4.56L12.31 4.56Q12.14 4.58 11.96 4.63L11.96 4.63L11.96 4.63Q11.79 4.69 11.70 4.73L11.70 4.73L11.70 4.73Q11.52 4.84 11.40 5.00L11.40 5.00L11.40 5.00Q11.27 5.17 11.19 5.37L11.19 5.37L11.19 5.37Q11.12 5.57 11.07 5.78L11.07 5.78L11.07 5.78Q11.03 5.99 11.00 6.17L11.00 6.17L10.92 6.97L10.92 6.97Q11.38 6.94 11.91 6.93L11.91 6.93L11.91 6.93Q12.45 6.92 12.82 6.99L12.82 6.99L12.82 6.99Q12.88 7.04 12.91 7.21L12.91 7.21L12.91 7.21Q12.94 7.38 12.94 7.56L12.94 7.56L12.94 7.56Q12.94 7.74 12.92 7.89L12.92 7.89L12.92 7.89Q12.91 8.04 12.89 8.05ZM17.49 12.54L17.49 12.54L17.49 12.54Q16.60 13.01 15.86 13.02L15.86 13.02L15.86 13.02Q15.11 13.03 14.57 12.74L14.57 12.74L14.57 12.74Q14.03 12.45 13.72 11.91L13.72 11.91L13.72 11.91Q13.41 11.38 13.38 10.75L13.38 10.75L13.38 10.75Q13.34 10.11 13.63 9.44L13.63 9.44L13.63 9.44Q13.92 8.76 14.56 8.19L14.56 8.19L14.56 8.19Q15.62 7.25 17.07 7.21L17.07 7.21L17.07 7.21Q17.35 7.20 17.62 7.23L17.62 7.23L17.62 7.23Q17.89 7.27 18.14 7.39L18.14 7.39L18.14 7.39Q18.23 7.52 18.24 7.63L18.24 7.63L18.24 7.63Q18.26 7.74 18.24 7.85L18.24 7.85L18.24 7.85Q18.23 7.97 18.19 8.09L18.19 8.09L18.19 8.09Q18.14 8.22 18.13 8.36L18.13 8.36L18.13 8.36Q18.09 8.53 17.99 8.56L17.99 8.56L17.99 8.56Q17.89 8.60 17.77 8.57L17.77 8.57L17.77 8.57Q17.64 8.55 17.51 8.51L17.51 8.51L17.51 8.51Q17.37 8.47 17.26 8.50L17.26 8.50L17.26 8.50Q17.15 8.46 16.93 8.48L16.93 8.48L16.93 8.48Q16.70 8.51 16.59 8.46L16.59 8.46L16.59 8.46Q16.06 8.53 15.65 8.80L15.65 8.80L15.65 8.80Q15.25 9.07 14.99 9.44L14.99 9.44L14.99 9.44Q14.74 9.81 14.66 10.23L14.66 10.23L14.66 10.23Q14.57 10.65 14.69 11.00L14.69 11.00L14.69 11.00Q14.80 11.35 15.13 11.59L15.13 11.59L15.13 11.59Q15.46 11.82 16.02 11.82L16.02 11.82L16.02 11.82Q16.67 11.82 17.23 11.47L17.23 11.47L17.23 11.47Q17.79 11.13 18.26 10.71L18.26 10.71L18.26 10.71Q18.45 10.79 18.57 10.94L18.57 10.94L18.57 10.94Q18.69 11.09 18.72 11.45L18.72 11.45L18.72 11.45Q18.68 11.61 18.53 11.77L18.53 11.77L18.53 11.77Q18.38 11.94 18.20 12.09L18.20 12.09L18.20 12.09Q18.02 12.24 17.82 12.36L17.82 12.36L17.82 12.36Q17.63 12.47 17.49 12.54ZM20.83 4.93L20.83 4.93L20.83 4.93Q21.10 5.07 21.19 5.31L21.19 5.31L21.19 5.31Q21.28 5.54 21.22 5.79L21.22 5.79L21.22 5.79Q21.17 6.03 20.99 6.22L20.99 6.22L20.99 6.22Q20.82 6.41 20.55 6.45L20.55 6.45L20.55 6.45Q20.17 6.51 19.94 6.32L19.94 6.32L19.94 6.32Q19.71 6.13 19.66 5.86L19.66 5.86L19.66 5.86Q19.61 5.59 19.75 5.30L19.75 5.30L19.75 5.30Q19.88 5.01 20.24 4.86L20.24 4.86L20.24 4.86Q20.44 4.77 20.58 4.82L20.58 4.82L20.58 4.82Q20.72 4.87 20.83 4.93ZM19.88 8.22L19.88 8.22L19.88 8.22Q19.88 8.09 19.89 7.88L19.89 7.88L19.89 7.88Q19.91 7.66 19.92 7.57L19.92 7.57L19.92 7.57Q20.01 7.57 20.22 7.55L20.22 7.55L20.22 7.55Q20.44 7.52 20.52 7.55L20.52 7.55L20.52 7.55Q20.66 7.56 20.80 7.60L20.80 7.60L20.80 7.60Q20.94 7.64 21.06 7.66L21.06 7.66L21.06 7.66Q21.08 7.78 21.10 8.16L21.10 8.16L21.10 8.16Q21.11 8.53 21.11 9.02L21.11 9.02L21.11 9.02Q21.11 9.51 21.11 10.06L21.11 10.06L21.11 10.06Q21.10 10.61 21.08 11.11L21.08 11.11L21.08 11.11Q21.07 11.61 21.06 11.98L21.06 11.98L21.06 11.98Q21.04 12.35 21.03 12.47L21.03 12.47L21.03 12.47Q21.01 12.60 20.84 12.65L20.84 12.65L20.84 12.65Q20.66 12.70 20.45 12.71L20.45 12.71L20.45 12.71Q20.24 12.71 20.05 12.69L20.05 12.69L20.05 12.69Q19.85 12.67 19.80 12.67L19.80 12.67L19.80 12.67Q19.80 12.54 19.80 12.20L19.80 12.20L19.80 12.20Q19.81 11.86 19.82 11.40L19.82 11.40L19.82 11.40Q19.84 10.93 19.85 10.42L19.85 10.42L19.85 10.42Q19.85 9.91 19.87 9.46L19.87 9.46L19.87 9.46Q19.88 9.00 19.88 8.67L19.88 8.67L19.88 8.67Q19.88 8.33 19.88 8.22ZM27.16 12.56L27.16 12.56L27.16 12.56Q27.06 12.57 26.96 12.58L26.96 12.58L26.96 12.58Q26.87 12.59 26.77 12.61L26.77 12.61L26.77 12.61Q26.57 12.68 26.40 12.66L26.40 12.66L26.40 12.66Q26.24 12.63 26.08 12.56L26.08 12.56L26.08 12.56Q26.10 12.05 26.11 11.68L26.11 11.68L26.11 11.68Q26.12 11.30 26.15 10.79L26.15 10.79L26.15 10.79Q26.17 10.50 26.16 10.19L26.16 10.19L26.16 10.19Q26.15 9.87 26.11 9.58L26.11 9.58L26.11 9.58Q26.00 8.89 25.67 8.67L25.67 8.67L25.67 8.67Q25.34 8.46 24.97 8.55L24.97 8.55L24.97 8.55Q24.60 8.64 24.28 8.95L24.28 8.95L24.28 8.95Q23.95 9.27 23.87 9.63L23.87 9.63L23.87 9.63Q23.70 10.35 23.69 11.07L23.69 11.07L23.69 11.07Q23.67 11.80 23.67 12.52L23.67 12.52L23.67 12.85L23.67 12.85Q23.56 12.85 23.39 12.87L23.39 12.87L23.39 12.87Q23.23 12.88 23.06 12.88L23.06 12.88L23.06 12.88Q22.89 12.88 22.75 12.83L22.75 12.83L22.75 12.83Q22.61 12.78 22.57 12.66L22.57 12.66L22.57 12.66Q22.57 12.57 22.57 12.01L22.57 12.01L22.57 12.01Q22.58 11.45 22.58 10.64L22.58 10.64L22.58 10.64Q22.58 9.83 22.59 8.87L22.59 8.87L22.59 8.87Q22.60 7.91 22.60 7.03L22.60 7.03L22.60 7.03Q22.60 6.27 22.58 5.65L22.58 5.65L22.58 5.65Q22.57 5.03 22.56 4.56L22.56 4.56L22.56 4.56Q22.55 4.10 22.55 3.84L22.55 3.84L22.55 3.84Q22.55 3.57 22.58 3.54L22.58 3.54L22.58 3.54Q22.60 3.51 22.67 3.50L22.67 3.50L22.67 3.50Q22.74 3.49 22.82 3.48L22.82 3.48L22.82 3.48Q22.90 3.47 22.97 3.47L22.97 3.47L22.97 3.47Q23.04 3.47 23.09 3.46L23.09 3.46L23.09 3.46Q23.16 3.40 23.33 3.46L23.33 3.46L23.33 3.46Q23.51 3.51 23.59 3.51L23.59 3.51L23.59 3.51Q23.60 3.58 23.62 3.94L23.62 3.94L23.62 3.94Q23.63 4.30 23.64 4.80L23.64 4.80L23.64 4.80Q23.65 5.31 23.65 5.89L23.65 5.89L23.65 5.89Q23.65 6.48 23.65 6.99L23.65 6.99L23.65 6.99Q23.66 7.50 23.66 7.87L23.66 7.87L23.66 7.87Q23.66 8.23 23.66 8.32L23.66 8.32L23.66 8.32Q24.01 7.91 24.49 7.61L24.49 7.61L24.49 7.61Q24.98 7.31 25.46 7.25L25.46 7.25L25.46 7.25Q25.94 7.20 26.38 7.43L26.38 7.43L26.38 7.43Q26.81 7.67 27.08 8.33L27.08 8.33L27.08 8.33Q27.34 8.99 27.36 9.72L27.36 9.72L27.36 9.72Q27.38 10.46 27.37 11.14L27.37 11.14L27.37 11.14Q27.37 11.30 27.36 11.49L27.36 11.49L27.36 11.49Q27.36 11.68 27.34 11.87L27.34 11.87L27.34 11.87Q27.31 12.07 27.27 12.25L27.27 12.25L27.27 12.25Q27.23 12.43 27.16 12.56ZM28.95 7.17L28.95 7.17L28.95 7.17Q29.04 7.15 29.14 7.15L29.14 7.15L29.14 7.15Q29.25 7.14 29.33 7.11L29.33 7.11L29.33 7.11Q29.53 7.04 29.70 7.08L29.70 7.08L29.70 7.08Q29.88 7.11 30.03 7.18L30.03 7.18L30.03 7.18Q30.00 7.69 29.96 8.19L29.96 8.19L29.96 8.19Q29.92 8.69 29.88 9.18L29.88 9.18L29.88 9.18Q29.85 9.48 29.86 9.80L29.86 9.80L29.86 9.80Q29.86 10.12 29.90 10.42L29.90 10.42L29.90 10.42Q29.96 10.88 30.13 11.12L30.13 11.12L30.13 11.12Q30.30 11.37 30.53 11.45L30.53 11.45L30.53 11.45Q30.76 11.52 31.02 11.46L31.02 11.46L31.02 11.46Q31.28 11.40 31.51 11.24L31.51 11.24L31.51 11.24Q31.74 11.09 31.91 10.86L31.91 10.86L31.91 10.86Q32.07 10.64 32.14 10.39L32.14 10.39L32.14 10.39Q32.34 9.67 32.37 8.95L32.37 8.95L32.37 8.95Q32.40 8.23 32.42 7.52L32.42 7.52L32.42 7.18L32.42 7.18Q32.54 7.18 32.70 7.17L32.70 7.17L32.70 7.17Q32.87 7.15 33.04 7.16L33.04 7.16L33.04 7.16Q33.21 7.17 33.35 7.22L33.35 7.22L33.35 7.22Q33.49 7.27 33.53 7.39L33.53 7.39L33.53 7.39Q33.53 7.50 33.52 7.92L33.52 7.92L33.52 7.92Q33.52 8.33 33.50 8.89L33.50 8.89L33.50 8.89Q33.49 9.45 33.47 10.07L33.47 10.07L33.47 10.07Q33.46 10.70 33.44 11.23L33.44 11.23L33.44 11.23Q33.42 11.77 33.38 12.14L33.38 12.14L33.38 12.14Q33.35 12.50 33.31 12.54L33.31 12.54L33.31 12.54Q33.25 12.59 33.06 12.59L33.06 12.59L33.06 12.59Q32.87 12.60 32.79 12.61L32.79 12.61L32.79 12.61Q32.72 12.67 32.61 12.64L32.61 12.64L32.61 12.64Q32.51 12.61 32.42 12.61L32.42 12.61L32.42 12.61Q32.31 12.19 32.31 11.72L32.31 11.72L32.31 11.72Q31.93 12.12 31.44 12.41L31.44 12.41L31.44 12.41Q30.95 12.70 30.47 12.75L30.47 12.75L30.47 12.75Q29.99 12.81 29.56 12.56L29.56 12.56L29.56 12.56Q29.13 12.32 28.88 11.65L28.88 11.65L28.88 11.65Q28.63 10.98 28.64 10.26L28.64 10.26L28.64 10.26Q28.64 9.53 28.67 8.82L28.67 8.82L28.67 8.82Q28.67 8.68 28.69 8.45L28.69 8.45L28.69 8.45Q28.71 8.22 28.74 7.98L28.74 7.98L28.74 7.98Q28.77 7.74 28.83 7.52L28.83 7.52L28.83 7.52Q28.88 7.29 28.95 7.17ZM36.05 12.50L36.05 12.50L36.05 12.50Q35.97 12.61 35.92 12.68L35.92 12.68L35.92 12.68Q35.88 12.74 35.85 12.85L35.85 12.85L35.85 12.85Q35.64 12.85 35.35 12.84L35.35 12.84L35.35 12.84Q35.06 12.82 34.92 12.74L34.92 12.74L34.92 12.74Q34.82 12.05 34.80 11.34L34.80 11.34L34.80 11.34Q34.79 10.63 34.82 9.91L34.82 9.91L34.82 9.91Q34.85 9.20 34.89 8.48L34.89 8.48L34.89 8.48Q34.93 7.76 34.93 7.04L34.93 7.04L34.94 7.03L34.94 7.03Q34.94 6.66 34.96 6.31L34.96 6.31L34.96 6.31Q34.99 5.96 34.99 5.60L34.99 5.60L34.99 5.60Q34.99 5.45 34.98 5.31L34.98 5.31L34.98 5.31Q34.97 5.17 35 5.01L35 5.01L35 5.01Q35.03 4.77 35.01 4.59L35.01 4.59L35.01 4.59Q34.99 4.40 35.01 4.16L35.01 4.16L35.01 4.16Q35.32 3.96 35.56 3.98L35.56 3.98L35.56 3.98Q35.80 4.00 35.99 3.99L35.99 3.99L35.99 3.99Q36.06 3.99 36.12 3.99L36.12 3.99L36.12 3.99Q36.18 3.99 36.23 4.05L36.23 4.05L36.23 4.05Q36.23 4.20 36.22 4.54L36.22 4.54L36.22 4.54Q36.20 4.87 36.18 5.30L36.18 5.30L36.18 5.30Q36.16 5.73 36.14 6.18L36.14 6.18L36.14 6.18Q36.12 6.64 36.11 7.04L36.11 7.04L36.11 7.04Q36.09 7.45 36.10 7.74L36.10 7.74L36.10 7.74Q36.11 8.04 36.15 8.13L36.15 8.13L36.15 8.13Q36.30 8.08 36.49 7.98L36.49 7.98L36.49 7.98Q36.68 7.88 36.88 7.80L36.88 7.80L36.88 7.80Q37.07 7.71 37.27 7.64L37.27 7.64L37.27 7.64Q37.46 7.57 37.63 7.57L37.63 7.57L37.63 7.57Q38.47 7.55 39.02 7.86L39.02 7.86L39.02 7.86Q39.58 8.18 39.86 8.68L39.86 8.68L39.86 8.68Q40.14 9.18 40.17 9.81L40.17 9.81L40.17 9.81Q40.19 10.43 39.99 11.01L39.99 11.01L39.99 11.01Q39.79 11.59 39.38 12.05L39.38 12.05L39.38 12.05Q38.96 12.52 38.36 12.71L38.36 12.71L38.36 12.71Q38.07 12.81 37.72 12.82L37.72 12.82L37.72 12.82Q37.37 12.82 37.04 12.78L37.04 12.78L37.04 12.78Q36.71 12.74 36.44 12.66L36.44 12.66L36.44 12.66Q36.18 12.59 36.05 12.50ZM36.16 9.21L36.16 9.21L36.16 9.21Q36.11 9.49 36.08 9.71L36.08 9.71L36.08 9.71Q36.06 9.93 36.06 10.19L36.06 10.19L36.06 11.37L36.06 11.37Q36.06 11.62 36.39 11.70L36.39 11.70L36.39 11.70Q36.71 11.77 37.14 11.70L37.14 11.70L37.14 11.70Q37.58 11.63 38.02 11.42L38.02 11.42L38.02 11.42Q38.46 11.21 38.70 10.86L38.70 10.86L38.70 10.86Q38.85 10.65 38.93 10.42L38.93 10.42L38.93 10.42Q39.02 10.18 39.02 9.91L39.02 9.91L39.02 9.91Q39.02 9.41 38.81 9.13L38.81 9.13L38.81 9.13Q38.61 8.85 38.30 8.74L38.30 8.74L38.30 8.74Q37.98 8.64 37.60 8.69L37.60 8.69L37.60 8.69Q37.21 8.74 36.83 8.89L36.83 8.89L36.83 8.89Q36.69 8.96 36.48 9.03L36.48 9.03L36.48 9.03Q36.27 9.10 36.16 9.21Z"></path></g><!----><g data-v-d3f97b9e="" id="ee6f90eb-5ec0-4777-8356-f19e3e36d764" transform="matrix(1.1414221157695137,0,0,1.1414221157695137,-10.343879888974278,-11.465698853151771)" stroke="none" fill="white"><switch><g><path d="M89.141 35.617C86.25 22.852 77.844 14.405 68.699 10.364c11.371 10.018 21.846 29.405 8.814 47.069-5.406 7.331-16.217 10.228-20.746 8.184 0 0 7.002-1.487 11.357-5.295 8.469-8.017 11.299-20.932 4.52-32.673a25.839 25.839 0 0 0-3.357-4.575c-.018-.021-.033-.042-.051-.062-4.764-5.683-11.307-9.075-18.337-10.116-9.127-1.715-20.896.515-29.71 8.666C11.58 30.45 8.468 41.953 9.542 51.895c2.989-14.858 14.542-33.622 36.355-31.171 9.053 1.019 16.965 8.932 17.461 13.877 0 0-5.277-8.281-18.365-8.281-.24.004-.747.024-.761.024l-.167.01c-8.51.333-16.783 4.784-21.83 13.526a25.819 25.819 0 0 0-2.284 5.195l-.028.074c-2.539 6.968-2.205 14.33.407 20.938 3.079 8.763 10.896 17.841 22.361 21.397 12.502 3.878 24.02.82 32.092-5.079-14.363 4.837-36.389 4.216-45.173-15.899-3.645-8.35-.749-19.159 3.287-22.061 0 0-4.534 8.71 2.012 20.044 4.482 7.484 12.617 12.658 22.949 12.658.498 0 4.488-.311 5.926-.633l.08-.011c7.303-1.286 13.512-5.256 17.928-10.822 6.05-7.046 10.003-18.356 7.349-30.064z"></path></g></switch></g><!----><g data-v-d3f97b9e="" id="44108598-e813-41b2-a012-b2c6efb4ac1b" fill="white" transform="matrix(0.36415845707570094,0,0,0.36415845707570094,111.96952938131552,57.93158143878506)"><path d="M7.10 15.68L6.38 13.24L2.18 13.24L1.47 15.68L0.21 15.68L3.18 5.88L5.39 5.88L8.36 15.68L7.10 15.68ZM4.37 6.38L4.20 6.38L2.51 12.15L6.06 12.15L4.37 6.38ZM16.90 15.68L16.90 5.88L22.92 5.88L22.92 6.97L18.07 6.97L18.07 10.22L22.83 10.22L22.83 11.31L18.07 11.31L18.07 15.68L16.90 15.68ZM38.49 12.15L38.49 15.68L37.31 15.68L37.31 12.40L37.31 12.40Q37.31 12.04 37.14 11.84L37.14 11.84L37.14 11.84Q36.97 11.65 36.55 11.65L36.55 11.65L33.50 11.65L33.50 15.68L32.33 15.68L32.33 5.88L35.83 5.88L35.83 5.88Q36.58 5.88 37.14 6.10L37.14 6.10L37.14 6.10Q37.70 6.31 38.07 6.68L38.07 6.68L38.07 6.68Q38.44 7.04 38.63 7.53L38.63 7.53L38.63 7.53Q38.82 8.01 38.82 8.54L38.82 8.54L38.82 8.96L38.82 8.96Q38.82 9.51 38.52 10.05L38.52 10.05L38.52 10.05Q38.22 10.60 37.59 10.89L37.59 10.89L37.59 11.06L37.59 11.06Q38.01 11.13 38.25 11.40L38.25 11.40L38.25 11.40Q38.49 11.66 38.49 12.15L38.49 12.15ZM33.50 6.97L33.50 10.56L35.69 10.56L35.69 10.56Q36.68 10.56 37.16 10.13L37.16 10.13L37.16 10.13Q37.65 9.70 37.65 8.88L37.65 8.88L37.65 8.62L37.65 8.62Q37.65 7.88 37.16 7.43L37.16 7.43L37.16 7.43Q36.68 6.97 35.69 6.97L35.69 6.97L33.50 6.97ZM47.88 6.97L47.88 5.88L54.10 5.88L54.10 6.97L51.58 6.97L51.58 14.59L54.10 14.59L54.10 15.68L47.88 15.68L47.88 14.59L50.40 14.59L50.40 6.97L47.88 6.97ZM66.61 14.78L66.61 14.78L66.61 14.78Q67.21 14.78 67.64 14.58L67.64 14.58L67.64 14.58Q68.07 14.38 68.34 14.04L68.34 14.04L68.34 14.04Q68.61 13.69 68.75 13.25L68.75 13.25L68.75 13.25Q68.88 12.81 68.88 12.32L68.88 12.32L68.88 12.15L70.06 12.15L70.06 12.32L70.06 12.32Q70.06 13.06 69.83 13.71L69.83 13.71L69.83 13.71Q69.61 14.36 69.17 14.85L69.17 14.85L69.17 14.85Q68.74 15.33 68.10 15.60L68.10 15.60L68.10 15.60Q67.45 15.88 66.61 15.88L66.61 15.88L66.61 15.88Q64.99 15.88 64.08 14.85L64.08 14.85L64.08 14.85Q63.17 13.83 63.17 11.87L63.17 11.87L63.17 9.69L63.17 9.69Q63.17 7.78 64.08 6.73L64.08 6.73L64.08 6.73Q64.99 5.68 66.61 5.68L66.61 5.68L66.61 5.68Q67.45 5.68 68.10 5.96L68.10 5.96L68.10 5.96Q68.74 6.23 69.17 6.71L69.17 6.71L69.17 6.71Q69.61 7.20 69.83 7.85L69.83 7.85L69.83 7.85Q70.06 8.50 70.06 9.24L70.06 9.24L70.06 9.41L68.88 9.41L68.88 9.24L68.88 9.24Q68.87 8.76 68.73 8.32L68.73 8.32L68.73 8.32Q68.60 7.87 68.33 7.53L68.33 7.53L68.33 7.53Q68.05 7.18 67.63 6.98L67.63 6.98L67.63 6.98Q67.21 6.78 66.61 6.78L66.61 6.78L66.61 6.78Q65.48 6.78 64.91 7.60L64.91 7.60L64.91 7.60Q64.34 8.43 64.34 9.77L64.34 9.77L64.34 11.79L64.34 11.79Q64.34 13.23 64.91 14.01L64.91 14.01L64.91 14.01Q65.48 14.78 66.61 14.78ZM84.94 15.68L84.22 13.24L80.02 13.24L79.31 15.68L78.05 15.68L81.02 5.88L83.23 5.88L86.20 15.68L84.94 15.68ZM82.21 6.38L82.04 6.38L80.35 12.15L83.90 12.15L82.21 6.38ZM100.00 9.21L100.00 8.71L100.00 8.71Q100.00 8.23 99.81 7.87L99.81 7.87L99.81 7.87Q99.62 7.50 99.30 7.27L99.30 7.27L99.30 7.27Q98.98 7.03 98.56 6.90L98.56 6.90L98.56 6.90Q98.14 6.78 97.68 6.78L97.68 6.78L97.68 6.78Q97.27 6.78 96.91 6.88L96.91 6.88L96.91 6.88Q96.54 6.99 96.26 7.18L96.26 7.18L96.26 7.18Q95.97 7.38 95.80 7.66L95.80 7.66L95.80 7.66Q95.63 7.95 95.63 8.33L95.63 8.33L95.63 8.41L95.63 8.41Q95.63 8.82 95.80 9.11L95.80 9.11L95.80 9.11Q95.97 9.39 96.30 9.60L96.30 9.60L96.30 9.60Q96.63 9.80 97.12 9.93L97.12 9.93L97.12 9.93Q97.61 10.07 98.27 10.16L98.27 10.16L98.27 10.16Q99.81 10.40 100.53 11.07L100.53 11.07L100.53 11.07Q101.26 11.73 101.26 12.85L101.26 12.85L101.26 13.02L101.26 13.02Q101.26 13.65 101.05 14.17L101.05 14.17L101.05 14.17Q100.83 14.70 100.40 15.08L100.40 15.08L100.40 15.08Q99.97 15.46 99.34 15.67L99.34 15.67L99.34 15.67Q98.71 15.88 97.89 15.88L97.89 15.88L97.89 15.88Q96.95 15.88 96.23 15.60L96.23 15.60L96.23 15.60Q95.51 15.33 95.03 14.85L95.03 14.85L95.03 14.85Q94.54 14.36 94.29 13.71L94.29 13.71L94.29 13.71Q94.04 13.06 94.04 12.29L94.04 12.29L94.04 11.87L95.21 11.87L95.21 12.21L95.21 12.21Q95.21 13.50 95.92 14.14L95.92 14.14L95.92 14.14Q96.63 14.78 97.89 14.78L97.89 14.78L97.89 14.78Q98.98 14.78 99.53 14.30L99.53 14.30L99.53 14.30Q100.09 13.82 100.09 13.02L100.09 13.02L100.09 12.94L100.09 12.94Q100.09 12.17 99.52 11.76L99.52 11.76L99.52 11.76Q98.95 11.35 97.68 11.17L97.68 11.17L97.68 11.17Q96.94 11.07 96.34 10.87L96.34 10.87L96.34 10.87Q95.75 10.67 95.33 10.34L95.33 10.34L95.33 10.34Q94.91 10.01 94.68 9.55L94.68 9.55L94.68 9.55Q94.46 9.09 94.46 8.46L94.46 8.46L94.46 8.29L94.46 8.29Q94.46 7.71 94.70 7.24L94.70 7.24L94.70 7.24Q94.93 6.76 95.36 6.41L95.36 6.41L95.36 6.41Q95.79 6.06 96.38 5.87L96.38 5.87L96.38 5.87Q96.98 5.68 97.69 5.68L97.69 5.68L97.69 5.68Q98.52 5.68 99.17 5.92L99.17 5.92L99.17 5.92Q99.82 6.16 100.27 6.56L100.27 6.56L100.27 6.56Q100.72 6.96 100.95 7.50L100.95 7.50L100.95 7.50Q101.18 8.04 101.18 8.62L101.18 8.62L101.18 9.21L100.00 9.21ZM128.88 14.78L128.88 14.78L128.88 14.78Q129.49 14.78 129.91 14.58L129.91 14.58L129.91 14.58Q130.34 14.38 130.61 14.04L130.61 14.04L130.61 14.04Q130.89 13.69 131.02 13.25L131.02 13.25L131.02 13.25Q131.15 12.81 131.15 12.32L131.15 12.32L131.15 12.15L132.33 12.15L132.33 12.32L132.33 12.32Q132.33 13.06 132.10 13.71L132.10 13.71L132.10 13.71Q131.88 14.36 131.45 14.85L131.45 14.85L131.45 14.85Q131.01 15.33 130.37 15.60L130.37 15.60L130.37 15.60Q129.72 15.88 128.88 15.88L128.88 15.88L128.88 15.88Q127.26 15.88 126.35 14.85L126.35 14.85L126.35 14.85Q125.44 13.83 125.44 11.87L125.44 11.87L125.44 9.69L125.44 9.69Q125.44 7.78 126.35 6.73L126.35 6.73L126.35 6.73Q127.26 5.68 128.88 5.68L128.88 5.68L128.88 5.68Q129.72 5.68 130.37 5.96L130.37 5.96L130.37 5.96Q131.01 6.23 131.45 6.71L131.45 6.71L131.45 6.71Q131.88 7.20 132.10 7.85L132.10 7.85L132.10 7.85Q132.33 8.50 132.33 9.24L132.33 9.24L132.33 9.41L131.15 9.41L131.15 9.24L131.15 9.24Q131.14 8.76 131.00 8.32L131.00 8.32L131.00 8.32Q130.87 7.87 130.60 7.53L130.60 7.53L130.60 7.53Q130.33 7.18 129.91 6.98L129.91 6.98L129.91 6.98Q129.49 6.78 128.88 6.78L128.88 6.78L128.88 6.78Q127.75 6.78 127.18 7.60L127.18 7.60L127.18 7.60Q126.62 8.43 126.62 9.77L126.62 9.77L126.62 11.79L126.62 11.79Q126.62 13.23 127.18 14.01L127.18 14.01L127.18 14.01Q127.75 14.78 128.88 14.78ZM147.46 12.15L147.46 15.68L146.29 15.68L146.29 12.40L146.29 12.40Q146.29 12.04 146.12 11.84L146.12 11.84L146.12 11.84Q145.95 11.65 145.53 11.65L145.53 11.65L142.48 11.65L142.48 15.68L141.30 15.68L141.30 5.88L144.80 5.88L144.80 5.88Q145.56 5.88 146.12 6.10L146.12 6.10L146.12 6.10Q146.68 6.31 147.05 6.68L147.05 6.68L147.05 6.68Q147.42 7.04 147.61 7.53L147.61 7.53L147.61 7.53Q147.80 8.01 147.80 8.54L147.80 8.54L147.80 8.96L147.80 8.96Q147.80 9.51 147.50 10.05L147.50 10.05L147.50 10.05Q147.20 10.60 146.57 10.89L146.57 10.89L146.57 11.06L146.57 11.06Q146.99 11.13 147.22 11.40L147.22 11.40L147.22 11.40Q147.46 11.66 147.46 12.15L147.46 12.15ZM142.48 6.97L142.48 10.56L144.66 10.56L144.66 10.56Q145.66 10.56 146.14 10.13L146.14 10.13L146.14 10.13Q146.62 9.70 146.62 8.88L146.62 8.88L146.62 8.62L146.62 8.62Q146.62 7.88 146.14 7.43L146.14 7.43L146.14 7.43Q145.66 6.97 144.66 6.97L144.66 6.97L142.48 6.97ZM157.00 15.68L157.00 5.88L162.93 5.88L162.93 6.97L158.17 6.97L158.17 10.22L162.85 10.22L162.85 11.31L158.17 11.31L158.17 14.59L163.02 14.59L163.02 15.68L157.00 15.68ZM178.35 15.68L177.63 13.24L173.43 13.24L172.72 15.68L171.46 15.68L174.43 5.88L176.64 5.88L179.61 15.68L178.35 15.68ZM175.62 6.38L175.45 6.38L173.75 12.15L177.31 12.15L175.62 6.38ZM187.66 6.97L187.66 5.88L194.54 5.88L194.54 6.97L191.69 6.97L191.69 15.68L190.51 15.68L190.51 6.97L187.66 6.97ZM203.56 6.97L203.56 5.88L209.78 5.88L209.78 6.97L207.26 6.97L207.26 14.59L209.78 14.59L209.78 15.68L203.56 15.68L203.56 14.59L206.08 14.59L206.08 6.97L203.56 6.97ZM221.10 15.68L218.33 5.88L219.59 5.88L222.15 15.18L222.32 15.18L224.88 5.88L226.14 5.88L223.37 15.68L221.10 15.68ZM234.84 15.68L234.84 5.88L240.77 5.88L240.77 6.97L236.01 6.97L236.01 10.22L240.69 10.22L240.69 11.31L236.01 11.31L236.01 14.59L240.86 14.59L240.86 15.68L234.84 15.68ZM271.75 15.68L271.04 13.24L266.84 13.24L266.13 15.68L264.87 15.68L267.83 5.88L270.05 5.88L273.01 15.68L271.75 15.68ZM269.02 6.38L268.86 6.38L267.16 12.15L270.72 12.15L269.02 6.38ZM283.60 5.88L286.43 15.18L286.59 15.18L286.59 5.88L287.77 5.88L287.77 15.68L285.42 15.68L282.59 6.38L282.42 6.38L282.42 15.68L281.25 15.68L281.25 5.88L283.60 5.88ZM296.81 6.97L296.81 5.88L300.03 5.88L300.03 5.88Q301.85 5.88 302.69 6.75L302.69 6.75L302.69 6.75Q303.53 7.62 303.53 9.52L303.53 9.52L303.53 12.04L303.53 12.04Q303.53 13.94 302.69 14.81L302.69 14.81L302.69 14.81Q301.85 15.68 300.03 15.68L300.03 15.68L296.81 15.68L296.81 14.57L297.65 14.57L297.65 6.97L296.81 6.97ZM298.83 14.59L299.87 14.59L299.87 14.59Q300.51 14.59 300.98 14.46L300.98 14.46L300.98 14.46Q301.45 14.34 301.76 14.04L301.76 14.04L301.76 14.04Q302.06 13.73 302.21 13.23L302.21 13.23L302.21 13.23Q302.36 12.73 302.36 11.96L302.36 11.96L302.36 9.60L302.36 9.60Q302.36 8.83 302.21 8.33L302.21 8.33L302.21 8.33Q302.06 7.83 301.76 7.53L301.76 7.53L301.76 7.53Q301.45 7.22 300.98 7.10L300.98 7.10L300.98 7.10Q300.51 6.97 299.87 6.97L299.87 6.97L298.83 6.97L298.83 14.59ZM328.10 6.97L328.10 5.88L334.32 5.88L334.32 6.97L331.80 6.97L331.80 14.59L334.32 14.59L334.32 15.68L328.10 15.68L328.10 14.59L330.62 14.59L330.62 6.97L328.10 6.97ZM345.87 5.88L348.70 15.18L348.87 15.18L348.87 5.88L350.04 5.88L350.04 15.68L347.69 15.68L344.86 6.38L344.69 6.38L344.69 15.68L343.52 15.68L343.52 5.88L345.87 5.88ZM361.44 5.88L364.27 15.18L364.43 15.18L364.43 5.88L365.61 5.88L365.61 15.68L363.26 15.68L360.43 6.38L360.26 6.38L360.26 15.68L359.09 15.68L359.09 5.88L361.44 5.88ZM374.47 11.87L374.47 9.69L374.47 9.69Q374.47 7.78 375.38 6.73L375.38 6.73L375.38 6.73Q376.29 5.68 377.92 5.68L377.92 5.68L377.92 5.68Q379.54 5.68 380.45 6.73L380.45 6.73L380.45 6.73Q381.36 7.78 381.36 9.69L381.36 9.69L381.36 11.87L381.36 11.87Q381.36 13.83 380.45 14.85L380.45 14.85L380.45 14.85Q379.54 15.88 377.92 15.88L377.92 15.88L377.92 15.88Q376.29 15.88 375.38 14.85L375.38 14.85L375.38 14.85Q374.47 13.83 374.47 11.87L374.47 11.87ZM377.92 14.78L377.92 14.78L377.92 14.78Q379.05 14.78 379.62 14.01L379.62 14.01L379.62 14.01Q380.18 13.23 380.18 11.79L380.18 11.79L380.18 9.77L380.18 9.77Q380.18 8.43 379.62 7.60L379.62 7.60L379.62 7.60Q379.05 6.78 377.92 6.78L377.92 6.78L377.92 6.78Q376.78 6.78 376.21 7.60L376.21 7.60L376.21 7.60Q375.65 8.43 375.65 9.77L375.65 9.77L375.65 11.79L375.65 11.79Q375.65 13.23 376.21 14.01L376.21 14.01L376.21 14.01Q376.78 14.78 377.92 14.78ZM392.35 15.68L389.58 5.88L390.84 5.88L393.40 15.18L393.57 15.18L396.13 5.88L397.39 5.88L394.62 15.68L392.35 15.68ZM411.87 15.68L411.15 13.24L406.95 13.24L406.24 15.68L404.98 15.68L407.95 5.88L410.16 5.88L413.13 15.68L411.87 15.68ZM409.14 6.38L408.97 6.38L407.27 12.15L410.83 12.15L409.14 6.38ZM421.18 6.97L421.18 5.88L428.06 5.88L428.06 6.97L425.21 6.97L425.21 15.68L424.03 15.68L424.03 6.97L421.18 6.97ZM437.08 6.97L437.08 5.88L443.30 5.88L443.30 6.97L440.78 6.97L440.78 14.59L443.30 14.59L443.30 15.68L437.08 15.68L437.08 14.59L439.60 14.59L439.60 6.97L437.08 6.97ZM454.62 15.68L451.85 5.88L453.11 5.88L455.67 15.18L455.84 15.18L458.40 5.88L459.66 5.88L456.89 15.68L454.62 15.68ZM468.36 15.68L468.36 5.88L474.29 5.88L474.29 6.97L469.53 6.97L469.53 10.22L474.21 10.22L474.21 11.31L469.53 11.31L469.53 14.59L474.38 14.59L474.38 15.68L468.36 15.68ZM499.20 15.68L499.20 5.88L500.37 5.88L500.37 10.22L504.55 10.22L504.55 5.88L505.72 5.88L505.72 15.68L504.55 15.68L504.55 11.31L500.37 11.31L500.37 15.68L499.20 15.68ZM514.67 5.88L515.84 5.88L515.84 12.38L515.84 12.38Q515.84 13.57 516.40 14.17L516.40 14.17L516.40 14.17Q516.95 14.78 518.03 14.78L518.03 14.78L518.03 14.78Q519.11 14.78 519.66 14.17L519.66 14.17L519.66 14.17Q520.21 13.57 520.21 12.38L520.21 12.38L520.21 5.88L521.39 5.88L521.39 12.38L521.39 12.38Q521.39 14.08 520.49 14.98L520.49 14.98L520.49 14.98Q519.60 15.88 518.03 15.88L518.03 15.88L518.03 15.88Q516.46 15.88 515.56 14.98L515.56 14.98L515.56 14.98Q514.67 14.08 514.67 12.38L514.67 12.38L514.67 5.88ZM530.11 15.68L530.11 14.59L530.95 14.59L530.95 6.97L530.11 6.97L530.11 5.88L534.07 5.88L534.07 5.88Q534.77 5.88 535.31 6.08L535.31 6.08L535.31 6.08Q535.85 6.27 536.22 6.61L536.22 6.61L536.22 6.61Q536.59 6.94 536.78 7.41L536.78 7.41L536.78 7.41Q536.97 7.88 536.97 8.43L536.97 8.43L536.97 8.60L536.97 8.60Q536.97 9.00 536.84 9.34L536.84 9.34L536.84 9.34Q536.72 9.67 536.49 9.94L536.49 9.94L536.49 9.94Q536.27 10.21 535.97 10.39L535.97 10.39L535.97 10.39Q535.67 10.58 535.32 10.68L535.32 10.68L535.32 10.85L535.32 10.85Q536.02 11.05 536.49 11.60L536.49 11.60L536.49 11.60Q536.97 12.15 536.97 12.95L536.97 12.95L536.97 13.12L536.97 13.12Q536.97 13.66 536.78 14.13L536.78 14.13L536.78 14.13Q536.59 14.60 536.22 14.95L536.22 14.95L536.22 14.95Q535.85 15.29 535.31 15.48L535.31 15.48L535.31 15.48Q534.77 15.68 534.07 15.68L534.07 15.68L530.11 15.68ZM532.13 11.31L532.13 14.59L533.99 14.59L533.99 14.59Q534.81 14.59 535.33 14.17L535.33 14.17L535.33 14.17Q535.85 13.76 535.85 13.03L535.85 13.03L535.85 12.95L535.85 12.95Q535.85 12.19 535.36 11.75L535.36 11.75L535.36 11.75Q534.87 11.31 534.03 11.31L534.03 11.31L532.13 11.31ZM532.13 6.97L532.13 10.22L534.03 10.22L534.03 10.22Q534.87 10.22 535.36 9.79L535.36 9.79L535.36 9.79Q535.85 9.35 535.85 8.60L535.85 8.60L535.85 8.51L535.85 8.51Q535.85 7.80 535.33 7.38L535.33 7.38L535.33 7.38Q534.81 6.97 533.99 6.97L533.99 6.97L532.13 6.97Z"></path></g></svg>